<?xml version="1.0" encoding="UTF-8"?>
<svg xmlns="http://www.w3.org/2000/svg" xmlns:xlink="http://www.w3.org/1999/xlink" width="854" height="480" viewBox="0 0 854 480">
<defs>
<g>
<g id="glyph-0-0">
<path d="M 0.5 -3.402344 C 0.5 -3.476562 0.527344 -3.539062 0.582031 -3.597656 C 0.636719 -3.652344 0.703125 -3.679688 0.777344 -3.679688 C 0.855469 -3.679688 0.917969 -3.652344 0.972656 -3.597656 C 1.027344 -3.539062 1.054688 -3.476562 1.054688 -3.402344 C 1.054688 -3.324219 1.027344 -3.257812 0.976562 -3.207031 C 0.921875 -3.152344 0.855469 -3.125 0.777344 -3.125 C 0.703125 -3.125 0.636719 -3.152344 0.582031 -3.207031 C 0.527344 -3.257812 0.5 -3.324219 0.5 -3.402344 M 0.609375 -2.335938 L 0.1875 -2.335938 L 0.1875 -2.59375 L 1.058594 -2.59375 L 1.058594 0.253906 C 1.058594 0.519531 0.980469 0.730469 0.820312 0.882812 C 0.664062 1.035156 0.445312 1.109375 0.164062 1.109375 C 0.0507812 1.109375 -0.0625 1.097656 -0.167969 1.070312 C -0.277344 1.042969 -0.378906 1.003906 -0.480469 0.949219 L -0.480469 0.414062 L -0.25 0.414062 C -0.238281 0.570312 -0.199219 0.6875 -0.128906 0.757812 C -0.0585938 0.832031 0.0429688 0.867188 0.175781 0.867188 C 0.324219 0.867188 0.433594 0.820312 0.503906 0.71875 C 0.574219 0.617188 0.609375 0.464844 0.609375 0.253906 Z "/>
</g>
<g id="glyph-0-1">
<path d="M 0.484375 -3.402344 C 0.484375 -3.476562 0.511719 -3.539062 0.566406 -3.597656 C 0.621094 -3.652344 0.6875 -3.679688 0.765625 -3.679688 C 0.839844 -3.679688 0.902344 -3.652344 0.957031 -3.597656 C 1.011719 -3.539062 1.039062 -3.476562 1.039062 -3.402344 C 1.039062 -3.324219 1.011719 -3.257812 0.960938 -3.207031 C 0.90625 -3.152344 0.839844 -3.125 0.765625 -3.125 C 0.6875 -3.125 0.621094 -3.152344 0.566406 -3.207031 C 0.511719 -3.257812 0.484375 -3.324219 0.484375 -3.402344 M 1.058594 -0.257812 L 1.484375 -0.257812 L 1.484375 0 L 0.179688 0 L 0.179688 -0.257812 L 0.609375 -0.257812 L 0.609375 -2.335938 L 0.179688 -2.335938 L 0.179688 -2.59375 L 1.058594 -2.59375 Z "/>
</g>
<g id="glyph-0-2">
<path d="M 2.625 -2.335938 L 2.625 -0.0546875 C 2.625 0.316406 2.523438 0.605469 2.316406 0.808594 C 2.113281 1.007812 1.820312 1.109375 1.441406 1.109375 C 1.269531 1.109375 1.105469 1.09375 0.949219 1.0625 C 0.792969 1.035156 0.644531 0.988281 0.5 0.925781 L 0.5 0.382812 L 0.734375 0.382812 C 0.765625 0.550781 0.832031 0.671875 0.941406 0.75 C 1.050781 0.828125 1.207031 0.867188 1.410156 0.867188 C 1.675781 0.867188 1.867188 0.792969 1.992188 0.644531 C 2.113281 0.496094 2.175781 0.261719 2.175781 -0.0546875 L 2.175781 -0.40625 C 2.085938 -0.242188 1.976562 -0.121094 1.839844 -0.046875 C 1.703125 0.03125 1.535156 0.0703125 1.335938 0.0703125 C 1.015625 0.0703125 0.753906 -0.0546875 0.554688 -0.308594 C 0.351562 -0.5625 0.25 -0.890625 0.25 -1.296875 C 0.25 -1.707031 0.351562 -2.035156 0.550781 -2.289062 C 0.753906 -2.539062 1.015625 -2.664062 1.335938 -2.664062 C 1.535156 -2.664062 1.703125 -2.628906 1.839844 -2.550781 C 1.976562 -2.472656 2.085938 -2.351562 2.175781 -2.191406 L 2.175781 -2.59375 L 3.054688 -2.59375 L 3.054688 -2.335938 L 2.625 -2.335938 M 2.175781 -1.425781 C 2.175781 -1.738281 2.117188 -1.972656 1.996094 -2.140625 C 1.875 -2.304688 1.703125 -2.386719 1.476562 -2.386719 C 1.242188 -2.386719 1.070312 -2.292969 0.949219 -2.113281 C 0.832031 -1.929688 0.773438 -1.660156 0.773438 -1.296875 C 0.773438 -0.941406 0.832031 -0.667969 0.949219 -0.484375 C 1.070312 -0.300781 1.242188 -0.210938 1.476562 -0.210938 C 1.703125 -0.210938 1.875 -0.292969 1.996094 -0.457031 C 2.117188 -0.617188 2.175781 -0.855469 2.175781 -1.167969 Z "/>
</g>
<g id="glyph-0-3">
<path d="M 1.023438 -0.257812 L 1.449219 -0.257812 L 1.449219 0 L 0.144531 0 L 0.144531 -0.257812 L 0.578125 -0.257812 L 0.578125 -3.539062 L 0.144531 -3.539062 L 0.144531 -3.796875 L 1.023438 -3.796875 Z "/>
</g>
<g id="glyph-0-4">
<path d="M 2.710938 -1.25 L 0.773438 -1.25 L 0.773438 -1.230469 C 0.773438 -0.878906 0.839844 -0.617188 0.972656 -0.4375 C 1.101562 -0.261719 1.296875 -0.171875 1.554688 -0.171875 C 1.753906 -0.171875 1.914062 -0.222656 2.039062 -0.324219 C 2.164062 -0.429688 2.253906 -0.582031 2.304688 -0.785156 L 2.664062 -0.785156 C 2.59375 -0.5 2.460938 -0.289062 2.269531 -0.144531 C 2.078125 0 1.824219 0.0703125 1.507812 0.0703125 C 1.128906 0.0703125 0.824219 -0.0546875 0.59375 -0.304688 C 0.363281 -0.554688 0.25 -0.886719 0.25 -1.296875 C 0.25 -1.710938 0.363281 -2.039062 0.589844 -2.289062 C 0.816406 -2.539062 1.113281 -2.664062 1.480469 -2.664062 C 1.871094 -2.664062 2.171875 -2.546875 2.382812 -2.304688 C 2.59375 -2.0625 2.703125 -1.710938 2.710938 -1.25 M 2.179688 -1.507812 C 2.171875 -1.8125 2.105469 -2.039062 1.988281 -2.195312 C 1.871094 -2.347656 1.699219 -2.425781 1.480469 -2.425781 C 1.273438 -2.425781 1.109375 -2.347656 0.992188 -2.191406 C 0.871094 -2.039062 0.800781 -1.808594 0.773438 -1.507812 Z "/>
</g>
</g>
</defs>
<g fill="rgb(100%, 100%, 100%)" fill-opacity="1">
<use xlink:href="#glyph-0-0" x="30" y="24.641602"/>
<use xlink:href="#glyph-0-1" x="32" y="24.641602"/>
<use xlink:href="#glyph-0-2" x="34" y="24.641602"/>
<use xlink:href="#glyph-0-2" x="37" y="24.641602"/>
<use xlink:href="#glyph-0-3" x="40" y="24.641602"/>
<use xlink:href="#glyph-0-4" x="42" y="24.641602"/>
</g>
</svg>
