<?xml version="1.0" encoding="UTF-8"?>
<svg xmlns="http://www.w3.org/2000/svg" xmlns:xlink="http://www.w3.org/1999/xlink" width="854" height="480" viewBox="0 0 854 480">
<defs>
<g>
<g id="glyph-0-0">
<path d="M 1.511719 -0.316406 L 2.402344 -0.316406 C 2.761719 -0.316406 3.023438 -0.394531 3.1875 -0.550781 C 3.351562 -0.703125 3.433594 -0.949219 3.433594 -1.289062 C 3.433594 -1.625 3.351562 -1.871094 3.1875 -2.023438 C 3.023438 -2.179688 2.761719 -2.253906 2.402344 -2.253906 L 1.511719 -2.253906 L 1.511719 -0.316406 M 1.511719 -2.570312 L 2.269531 -2.570312 C 2.59375 -2.570312 2.832031 -2.632812 2.980469 -2.761719 C 3.132812 -2.886719 3.207031 -3.082031 3.207031 -3.355469 C 3.207031 -3.625 3.132812 -3.824219 2.980469 -3.949219 C 2.832031 -4.074219 2.59375 -4.136719 2.269531 -4.136719 L 1.511719 -4.136719 L 1.511719 -2.570312 M 0.335938 0 L 0.335938 -0.316406 L 0.902344 -0.316406 L 0.902344 -4.136719 L 0.335938 -4.136719 L 0.335938 -4.453125 L 2.535156 -4.453125 C 2.984375 -4.453125 3.324219 -4.363281 3.550781 -4.179688 C 3.78125 -3.996094 3.894531 -3.71875 3.894531 -3.355469 C 3.894531 -3.089844 3.816406 -2.878906 3.65625 -2.722656 C 3.5 -2.5625 3.265625 -2.46875 2.960938 -2.433594 C 3.339844 -2.382812 3.628906 -2.261719 3.824219 -2.070312 C 4.019531 -1.875 4.117188 -1.613281 4.117188 -1.289062 C 4.117188 -0.847656 3.976562 -0.523438 3.699219 -0.3125 C 3.421875 -0.105469 2.988281 0 2.394531 0 Z "/>
</g>
<g id="glyph-0-1">
<path d="M 1.253906 -0.316406 L 1.773438 -0.316406 L 1.773438 0 L 0.175781 0 L 0.175781 -0.316406 L 0.703125 -0.316406 L 0.703125 -4.328125 L 0.175781 -4.328125 L 0.175781 -4.644531 L 1.253906 -4.644531 Z "/>
</g>
<g id="glyph-0-2">
<path d="M 2.433594 -0.996094 L 2.433594 -1.667969 L 1.722656 -1.667969 C 1.453125 -1.667969 1.25 -1.609375 1.117188 -1.492188 C 0.984375 -1.375 0.914062 -1.195312 0.914062 -0.953125 C 0.914062 -0.730469 0.984375 -0.554688 1.117188 -0.425781 C 1.253906 -0.296875 1.4375 -0.234375 1.667969 -0.234375 C 1.898438 -0.234375 2.082031 -0.304688 2.222656 -0.445312 C 2.363281 -0.585938 2.433594 -0.769531 2.433594 -0.996094 M 2.980469 -1.980469 L 2.980469 -0.316406 L 3.46875 -0.316406 L 3.46875 0 L 2.433594 0 L 2.433594 -0.34375 C 2.308594 -0.195312 2.171875 -0.0859375 2.011719 -0.0195312 C 1.851562 0.0507812 1.664062 0.0859375 1.453125 0.0859375 C 1.101562 0.0859375 0.820312 -0.0078125 0.613281 -0.195312 C 0.40625 -0.382812 0.304688 -0.632812 0.304688 -0.953125 C 0.304688 -1.28125 0.421875 -1.535156 0.660156 -1.714844 C 0.894531 -1.898438 1.230469 -1.988281 1.660156 -1.988281 L 2.433594 -1.988281 L 2.433594 -2.203125 C 2.433594 -2.445312 2.359375 -2.632812 2.210938 -2.765625 C 2.066406 -2.898438 1.859375 -2.960938 1.597656 -2.960938 C 1.378906 -2.960938 1.203125 -2.914062 1.074219 -2.8125 C 0.945312 -2.714844 0.863281 -2.566406 0.832031 -2.371094 L 0.550781 -2.371094 L 0.550781 -3.011719 C 0.738281 -3.09375 0.925781 -3.15625 1.105469 -3.195312 C 1.285156 -3.238281 1.460938 -3.257812 1.632812 -3.257812 C 2.070312 -3.257812 2.40625 -3.148438 2.636719 -2.929688 C 2.867188 -2.714844 2.980469 -2.398438 2.980469 -1.980469 Z "/>
</g>
<g id="glyph-0-3">
<path d="M 3.164062 -2.554688 C 3.269531 -2.785156 3.40625 -2.960938 3.570312 -3.082031 C 3.734375 -3.199219 3.925781 -3.257812 4.144531 -3.257812 C 4.476562 -3.257812 4.722656 -3.15625 4.886719 -2.949219 C 5.050781 -2.742188 5.132812 -2.433594 5.132812 -2.015625 L 5.132812 -0.316406 L 5.628906 -0.316406 L 5.628906 0 L 4.105469 0 L 4.105469 -0.316406 L 4.582031 -0.316406 L 4.582031 -1.953125 C 4.582031 -2.277344 4.535156 -2.507812 4.441406 -2.648438 C 4.34375 -2.785156 4.1875 -2.851562 3.964844 -2.851562 C 3.722656 -2.851562 3.535156 -2.761719 3.40625 -2.574219 C 3.277344 -2.390625 3.214844 -2.121094 3.214844 -1.765625 L 3.214844 -0.316406 L 3.691406 -0.316406 L 3.691406 0 L 2.1875 0 L 2.1875 -0.316406 L 2.664062 -0.316406 L 2.664062 -1.976562 C 2.664062 -2.292969 2.617188 -2.515625 2.519531 -2.652344 C 2.425781 -2.785156 2.269531 -2.851562 2.046875 -2.851562 C 1.800781 -2.851562 1.617188 -2.761719 1.488281 -2.574219 C 1.359375 -2.390625 1.296875 -2.121094 1.296875 -1.765625 L 1.296875 -0.316406 L 1.773438 -0.316406 L 1.773438 0 L 0.25 0 L 0.25 -0.316406 L 0.746094 -0.316406 L 0.746094 -2.859375 L 0.222656 -2.859375 L 0.222656 -3.171875 L 1.296875 -3.171875 L 1.296875 -2.609375 C 1.394531 -2.820312 1.527344 -2.980469 1.683594 -3.089844 C 1.839844 -3.203125 2.019531 -3.257812 2.21875 -3.257812 C 2.464844 -3.257812 2.667969 -3.195312 2.835938 -3.074219 C 3 -2.953125 3.109375 -2.777344 3.164062 -2.554688 Z "/>
</g>
<g id="glyph-0-4">
<path d="M 0.59375 -4.15625 C 0.59375 -4.246094 0.628906 -4.328125 0.695312 -4.394531 C 0.761719 -4.460938 0.839844 -4.496094 0.933594 -4.496094 C 1.027344 -4.496094 1.105469 -4.460938 1.171875 -4.394531 C 1.238281 -4.328125 1.269531 -4.246094 1.269531 -4.15625 C 1.269531 -4.0625 1.238281 -3.984375 1.171875 -3.917969 C 1.105469 -3.851562 1.027344 -3.820312 0.933594 -3.820312 C 0.839844 -3.820312 0.761719 -3.851562 0.695312 -3.917969 C 0.628906 -3.984375 0.59375 -4.0625 0.59375 -4.15625 M 1.296875 -0.316406 L 1.8125 -0.316406 L 1.8125 0 L 0.222656 0 L 0.222656 -0.316406 L 0.746094 -0.316406 L 0.746094 -2.851562 L 0.222656 -2.851562 L 0.222656 -3.171875 L 1.296875 -3.171875 Z "/>
</g>
<g id="glyph-0-5">
<path d="M 0.25 0 L 0.25 -0.316406 L 0.746094 -0.316406 L 0.746094 -2.851562 L 0.222656 -2.851562 L 0.222656 -3.171875 L 1.296875 -3.171875 L 1.296875 -2.609375 C 1.394531 -2.824219 1.527344 -2.984375 1.691406 -3.09375 C 1.851562 -3.203125 2.039062 -3.257812 2.253906 -3.257812 C 2.605469 -3.257812 2.863281 -3.15625 3.027344 -2.957031 C 3.195312 -2.757812 3.277344 -2.441406 3.277344 -2.015625 L 3.277344 -0.316406 L 3.765625 -0.316406 L 3.765625 0 L 2.25 0 L 2.25 -0.316406 L 2.722656 -0.316406 L 2.722656 -1.84375 C 2.722656 -2.230469 2.675781 -2.496094 2.582031 -2.640625 C 2.484375 -2.785156 2.316406 -2.859375 2.078125 -2.859375 C 1.820312 -2.859375 1.628906 -2.765625 1.496094 -2.578125 C 1.363281 -2.394531 1.296875 -2.121094 1.296875 -1.765625 L 1.296875 -0.316406 L 1.773438 -0.316406 L 1.773438 0 Z "/>
</g>
<g id="glyph-0-6">
<path d="M 3.207031 -2.851562 L 3.207031 -0.0703125 C 3.207031 0.386719 3.082031 0.738281 2.832031 0.984375 C 2.582031 1.234375 2.222656 1.359375 1.761719 1.359375 C 1.550781 1.359375 1.351562 1.339844 1.160156 1.300781 C 0.96875 1.261719 0.785156 1.207031 0.613281 1.128906 L 0.613281 0.464844 L 0.898438 0.464844 C 0.933594 0.671875 1.019531 0.824219 1.152344 0.917969 C 1.285156 1.015625 1.476562 1.0625 1.722656 1.0625 C 2.046875 1.0625 2.28125 0.972656 2.433594 0.789062 C 2.582031 0.605469 2.660156 0.320312 2.660156 -0.0703125 L 2.660156 -0.496094 C 2.550781 -0.296875 2.414062 -0.148438 2.25 -0.0546875 C 2.082031 0.0390625 1.875 0.0859375 1.632812 0.0859375 C 1.242188 0.0859375 0.921875 -0.0664062 0.675781 -0.378906 C 0.429688 -0.6875 0.304688 -1.089844 0.304688 -1.585938 C 0.304688 -2.085938 0.425781 -2.488281 0.675781 -2.796875 C 0.921875 -3.105469 1.242188 -3.257812 1.632812 -3.257812 C 1.875 -3.257812 2.082031 -3.210938 2.25 -3.117188 C 2.414062 -3.023438 2.550781 -2.875 2.660156 -2.675781 L 2.660156 -3.171875 L 3.734375 -3.171875 L 3.734375 -2.851562 L 3.207031 -2.851562 M 2.660156 -1.742188 C 2.660156 -2.121094 2.585938 -2.414062 2.4375 -2.613281 C 2.292969 -2.816406 2.082031 -2.914062 1.800781 -2.914062 C 1.519531 -2.914062 1.304688 -2.804688 1.164062 -2.582031 C 1.019531 -2.359375 0.945312 -2.027344 0.945312 -1.585938 C 0.945312 -1.148438 1.019531 -0.820312 1.164062 -0.59375 C 1.304688 -0.367188 1.519531 -0.257812 1.800781 -0.257812 C 2.082031 -0.257812 2.292969 -0.355469 2.4375 -0.554688 C 2.585938 -0.757812 2.660156 -1.046875 2.660156 -1.429688 Z "/>
</g>
</g>
</defs>
<g fill="rgb(100%, 100%, 100%)" fill-opacity="1">
<use xlink:href="#glyph-0-0" x="30" y="25.671875"/>
<use xlink:href="#glyph-0-1" x="34" y="25.671875"/>
<use xlink:href="#glyph-0-2" x="36" y="25.671875"/>
<use xlink:href="#glyph-0-3" x="40" y="25.671875"/>
<use xlink:href="#glyph-0-4" x="46" y="25.671875"/>
<use xlink:href="#glyph-0-5" x="48" y="25.671875"/>
<use xlink:href="#glyph-0-6" x="52" y="25.671875"/>
</g>
</svg>
